<mxfile host="app.diagrams.net" modified="2021-02-25T14:19:20.820Z" agent="5.0 (Macintosh; Intel Mac OS X 10_15_7) AppleWebKit/537.36 (KHTML, like Gecko) Chrome/88.0.4324.182 Safari/537.36 Edg/88.0.705.74" etag="9DJaZDQXKQb4zd4EwF0c" version="14.3.0" type="github">
  <diagram name="Page-1" id="c9db0220-8083-56f3-ca83-edcdcd058819">
    <mxGraphModel dx="2066" dy="1003" grid="1" gridSize="10" guides="1" tooltips="1" connect="1" arrows="1" fold="1" page="1" pageScale="1.5" pageWidth="826" pageHeight="1169" background="#ffffff" math="0" shadow="0">
      <root>
        <mxCell id="0" style=";html=1;" />
        <mxCell id="1" style=";html=1;" parent="0" />
        <mxCell id="3d76a8aef4d5c911-1" value="" style="html=1;shadow=0;dashed=0;shape=mxgraph.bootstrap.rect;fillColor=#222222;strokeColor=none;whiteSpace=wrap;rounded=0;fontSize=12;fontColor=#000000;align=center;" parent="1" vertex="1">
          <mxGeometry x="40" y="70" width="1150" height="40" as="geometry" />
        </mxCell>
        <mxCell id="3d76a8aef4d5c911-2" value="&lt;font color=&quot;#ffffff&quot;&gt;细分场景运营平台&lt;/font&gt;" style="html=1;shadow=0;dashed=0;fillColor=none;strokeColor=none;shape=mxgraph.bootstrap.rect;fontColor=#999999;fontSize=14;whiteSpace=wrap;" parent="3d76a8aef4d5c911-1" vertex="1">
          <mxGeometry width="140" height="40" as="geometry" />
        </mxCell>
        <mxCell id="3d76a8aef4d5c911-9" value="Profile" style="html=1;shadow=0;dashed=0;fillColor=none;strokeColor=none;shape=mxgraph.bootstrap.rect;fontColor=#999999;whiteSpace=wrap;" parent="3d76a8aef4d5c911-1" vertex="1">
          <mxGeometry x="948.75" width="100.625" height="40" as="geometry" />
        </mxCell>
        <mxCell id="3d76a8aef4d5c911-10" value="Log Out" style="html=1;shadow=0;dashed=0;fillColor=none;strokeColor=none;shape=mxgraph.bootstrap.rect;fontColor=#999999;whiteSpace=wrap;" parent="3d76a8aef4d5c911-1" vertex="1">
          <mxGeometry x="1049.375" width="100.625" height="40" as="geometry" />
        </mxCell>
        <mxCell id="3d76a8aef4d5c911-17" value="&lt;font style=&quot;font-size: 16px&quot;&gt;场景名称&lt;/font&gt;" style="html=1;shadow=0;dashed=0;shape=mxgraph.bootstrap.rect;strokeColor=none;fillColor=none;align=left;spacingLeft=5;whiteSpace=wrap;rounded=0;" parent="1" vertex="1">
          <mxGeometry x="40" y="130" width="200" height="20" as="geometry" />
        </mxCell>
        <mxCell id="3d76a8aef4d5c911-18" value="2021年618大促" style="html=1;shadow=0;dashed=0;shape=mxgraph.bootstrap.rrect;rSize=5;strokeColor=#dddddd;;align=left;spacingLeft=10;fontSize=16;whiteSpace=wrap;rounded=0;" parent="1" vertex="1">
          <mxGeometry x="40" y="150" width="440" height="40" as="geometry" />
        </mxCell>
        <mxCell id="3d76a8aef4d5c911-19" value="触发条件" style="html=1;shadow=0;dashed=0;shape=mxgraph.bootstrap.rect;strokeColor=none;fillColor=none;align=left;spacingLeft=5;whiteSpace=wrap;rounded=0;fontSize=16;" parent="1" vertex="1">
          <mxGeometry x="40" y="210" width="200" height="20" as="geometry" />
        </mxCell>
        <mxCell id="3d76a8aef4d5c911-51" value="Save" style="html=1;shadow=0;dashed=0;shape=mxgraph.bootstrap.rrect;align=center;rSize=5;strokeColor=none;fillColor=#3D8BCD;fontColor=#ffffff;fontSize=16;whiteSpace=wrap;rounded=0;" parent="1" vertex="1">
          <mxGeometry x="40" y="600" width="150" height="40" as="geometry" />
        </mxCell>
        <mxCell id="3d76a8aef4d5c911-52" value="Cancel" style="html=1;shadow=0;dashed=0;shape=mxgraph.bootstrap.rrect;align=center;rSize=5;strokeColor=#dddddd;fontSize=16;whiteSpace=wrap;rounded=0;" parent="1" vertex="1">
          <mxGeometry x="220" y="600" width="100" height="40" as="geometry" />
        </mxCell>
        <mxCell id="U82ant2w8SWr-vsdelVp-2" value="Query维度&lt;br&gt;" style="html=1;shadow=0;dashed=0;shape=mxgraph.bootstrap.checkbox;fontSize=17;strokeColor=#999999;align=left;labelPosition=right;spacingLeft=5;rounded=0;" vertex="1" parent="1">
          <mxGeometry x="74" y="240" width="14" height="14" as="geometry" />
        </mxCell>
        <mxCell id="U82ant2w8SWr-vsdelVp-9" value="用户维度" style="html=1;shadow=0;dashed=0;shape=mxgraph.bootstrap.checkbox;fontSize=17;strokeColor=#999999;align=left;labelPosition=right;spacingLeft=5;rounded=0;" vertex="1" parent="1">
          <mxGeometry x="74" y="280" width="14" height="14" as="geometry" />
        </mxCell>
        <mxCell id="U82ant2w8SWr-vsdelVp-12" value="时间维度" style="html=1;shadow=0;dashed=0;shape=mxgraph.bootstrap.checkbox;fontSize=17;strokeColor=#999999;align=left;labelPosition=right;spacingLeft=5;rounded=0;" vertex="1" parent="1">
          <mxGeometry x="74" y="320" width="14" height="14" as="geometry" />
        </mxCell>
        <mxCell id="U82ant2w8SWr-vsdelVp-13" value="渠道维度" style="html=1;shadow=0;dashed=0;shape=mxgraph.bootstrap.checkbox;fontSize=17;strokeColor=#999999;align=left;labelPosition=right;spacingLeft=5;rounded=0;" vertex="1" parent="1">
          <mxGeometry x="74" y="360" width="14" height="14" as="geometry" />
        </mxCell>
        <mxCell id="U82ant2w8SWr-vsdelVp-14" value="预期结果" style="html=1;shadow=0;dashed=0;shape=mxgraph.bootstrap.rect;strokeColor=none;fillColor=none;align=left;spacingLeft=5;whiteSpace=wrap;rounded=0;fontSize=16;" vertex="1" parent="1">
          <mxGeometry x="40" y="410" width="200" height="20" as="geometry" />
        </mxCell>
        <mxCell id="U82ant2w8SWr-vsdelVp-29" style="edgeStyle=orthogonalEdgeStyle;rounded=0;orthogonalLoop=1;jettySize=auto;html=1;fontSize=16;fontColor=#000000;" edge="1" parent="1" source="U82ant2w8SWr-vsdelVp-21" target="U82ant2w8SWr-vsdelVp-25">
          <mxGeometry relative="1" as="geometry" />
        </mxCell>
        <mxCell id="U82ant2w8SWr-vsdelVp-21" value="粗排积木2" style="html=1;shadow=0;dashed=0;shape=mxgraph.bootstrap.rrect;rSize=5;strokeColor=#1CA5B8;strokeWidth=1;fillColor=none;fontColor=#1CA5B8;whiteSpace=wrap;align=center;verticalAlign=middle;spacingLeft=0;fontStyle=0;fontSize=16;spacing=5;" vertex="1" parent="1">
          <mxGeometry x="260" y="450" width="100" height="40" as="geometry" />
        </mxCell>
        <mxCell id="U82ant2w8SWr-vsdelVp-28" style="edgeStyle=orthogonalEdgeStyle;rounded=0;orthogonalLoop=1;jettySize=auto;html=1;entryX=0;entryY=0.5;entryDx=0;entryDy=0;entryPerimeter=0;fontSize=16;fontColor=#000000;" edge="1" parent="1" source="U82ant2w8SWr-vsdelVp-23" target="U82ant2w8SWr-vsdelVp-21">
          <mxGeometry relative="1" as="geometry" />
        </mxCell>
        <mxCell id="U82ant2w8SWr-vsdelVp-23" value="召回积木1" style="html=1;shadow=0;dashed=0;shape=mxgraph.bootstrap.rrect;rSize=5;strokeColor=#0085FC;strokeWidth=1;fillColor=none;fontColor=#0085FC;whiteSpace=wrap;align=center;verticalAlign=middle;spacingLeft=0;fontStyle=0;fontSize=16;spacing=5;" vertex="1" parent="1">
          <mxGeometry x="88" y="450" width="100" height="40" as="geometry" />
        </mxCell>
        <mxCell id="U82ant2w8SWr-vsdelVp-30" style="edgeStyle=orthogonalEdgeStyle;rounded=0;orthogonalLoop=1;jettySize=auto;html=1;fontSize=16;fontColor=#000000;" edge="1" parent="1" source="U82ant2w8SWr-vsdelVp-25" target="U82ant2w8SWr-vsdelVp-26">
          <mxGeometry relative="1" as="geometry" />
        </mxCell>
        <mxCell id="U82ant2w8SWr-vsdelVp-25" value="聚合积木3" style="html=1;shadow=0;dashed=0;shape=mxgraph.bootstrap.rrect;rSize=5;strokeColor=#6C767D;strokeWidth=1;fillColor=none;fontColor=#6C767D;whiteSpace=wrap;align=center;verticalAlign=middle;spacingLeft=0;fontStyle=0;fontSize=16;spacing=5;" vertex="1" parent="1">
          <mxGeometry x="430" y="450" width="100" height="40" as="geometry" />
        </mxCell>
        <mxCell id="U82ant2w8SWr-vsdelVp-34" style="edgeStyle=none;rounded=0;orthogonalLoop=1;jettySize=auto;html=1;fontSize=16;fontColor=#000000;" edge="1" parent="1" source="U82ant2w8SWr-vsdelVp-26" target="U82ant2w8SWr-vsdelVp-33">
          <mxGeometry relative="1" as="geometry" />
        </mxCell>
        <mxCell id="U82ant2w8SWr-vsdelVp-26" value="精排积木4" style="html=1;shadow=0;dashed=0;shape=mxgraph.bootstrap.rrect;rSize=5;strokeColor=#FFBC26;strokeWidth=1;fillColor=none;fontColor=#FFBC26;whiteSpace=wrap;align=center;verticalAlign=middle;spacingLeft=0;fontStyle=0;fontSize=16;spacing=5;" vertex="1" parent="1">
          <mxGeometry x="600" y="450" width="90" height="40" as="geometry" />
        </mxCell>
        <mxCell id="U82ant2w8SWr-vsdelVp-33" value="策略积木5" style="html=1;shadow=0;dashed=0;shape=mxgraph.bootstrap.rrect;rSize=5;strokeColor=#33A64C;strokeWidth=1;fillColor=none;fontColor=#33A64C;whiteSpace=wrap;align=center;verticalAlign=middle;spacingLeft=0;fontStyle=0;fontSize=16;spacing=5;" vertex="1" parent="1">
          <mxGeometry x="760" y="450" width="90" height="40" as="geometry" />
        </mxCell>
      </root>
    </mxGraphModel>
  </diagram>
</mxfile>
